<?xml version="1.0" encoding="utf-8"?><!-- Uploaded to: SVG Repo, www.svgrepo.com, Generator: SVG Repo Mixer Tools -->
<svg fill="#000000" width="800px" height="800px" viewBox="0 0 24 24" id="faceid" data-name="Flat Color" xmlns="http://www.w3.org/2000/svg" class="icon flat-color"><path id="secondary" d="M10,14a1,1,0,0,1,0-2c.69,0,1-.29,1-2V7a1,1,0,0,1,2,0v3C13,12.65,12,14,10,14Zm7-5V7a1,1,0,0,0-2,0V9a1,1,0,0,0,2,0ZM9,9V7A1,1,0,0,0,7,7V9A1,1,0,0,0,9,9Zm7.71,7.71a1,1,0,0,0-1.42-1.42,5.11,5.11,0,0,1-6.58,0,1,1,0,1,0-1.42,1.42A6.72,6.72,0,0,0,12,18.49,6.72,6.72,0,0,0,16.71,16.71Z" style="fill: rgb(44, 169, 188);"></path><path id="primary" d="M20,22H16a1,1,0,0,1,0-2h4V16a1,1,0,0,1,2,0v4A2,2,0,0,1,20,22ZM9,21a1,1,0,0,0-1-1H4V16a1,1,0,0,0-2,0v4a2,2,0,0,0,2,2H8A1,1,0,0,0,9,21ZM4,8V4H8A1,1,0,0,0,8,2H4A2,2,0,0,0,2,4V8A1,1,0,0,0,4,8ZM22,8V4a2,2,0,0,0-2-2H16a1,1,0,0,0,0,2h4V8a1,1,0,0,0,2,0Z" style="fill: rgb(0, 0, 0);"></path></svg>